<svg width="67" height="67" viewBox="0 0 67 67" fill="none" xmlns="http://www.w3.org/2000/svg">
<path d="M33.3333 0C37.7536 0 41.9928 1.75595 45.1184 4.88155C48.2441 8.00716 50 12.2464 50 16.6667C50 21.0869 48.2441 25.3262 45.1184 28.4518C41.9928 31.5774 37.7536 33.3333 33.3333 33.3333C28.9131 33.3333 24.6738 31.5774 21.5482 28.4518C18.4226 25.3262 16.6667 21.0869 16.6667 16.6667C16.6667 12.2464 18.4226 8.00716 21.5482 4.88155C24.6738 1.75595 28.9131 0 33.3333 0ZM33.3333 41.6667C51.75 41.6667 66.6667 49.125 66.6667 58.3333V66.6667H0V58.3333C0 49.125 14.9167 41.6667 33.3333 41.6667Z" fill="black"/>
</svg>
