<svg width="92" height="84" viewBox="0 0 92 84" fill="none" xmlns="http://www.w3.org/2000/svg">
<path d="M87.5 50H83.3333C83.3333 33.875 70.2917 20.8333 54.1667 20.8333H50V15.5417C52.5 14.125 54.1667 11.4167 54.1667 8.33333C54.1667 3.75 50.4583 0 45.8333 0C41.2083 0 37.5 3.75 37.5 8.33333C37.5 11.4167 39.1667 14.125 41.6667 15.5417V20.8333H37.5C21.375 20.8333 8.33333 33.875 8.33333 50H4.16667C1.875 50 0 51.875 0 54.1667V66.6667C0 68.9583 1.875 70.8333 4.16667 70.8333H8.33333V75C8.33333 79.625 12.0833 83.3333 16.6667 83.3333H75C79.625 83.3333 83.3333 79.625 83.3333 75V70.8333H87.5C89.7917 70.8333 91.6667 68.9583 91.6667 66.6667V54.1667C91.6667 51.875 89.7917 50 87.5 50ZM27.0833 66.6667C21.3333 66.6667 16.6667 62 16.6667 56.25C16.6667 52.8333 18.3333 49.8333 20.8333 47.9167L36.7917 59.9167C35.4167 63.8333 31.5417 66.6667 27.0833 66.6667ZM64.5833 66.6667C60.125 66.6667 56.25 63.8333 54.875 59.9167L70.8333 47.9167C73.3333 49.8333 75 52.8333 75 56.25C75 62 70.3333 66.6667 64.5833 66.6667Z" fill="black"/>
</svg>
